<svg id="Layer_1" data-name="Layer 1" xmlns="http://www.w3.org/2000/svg" viewBox="0 0 780.28 197.02"><defs><style>.cls-1{fill:#262645;}.cls-2{fill:#556eff;}</style></defs><path class="cls-1" d="M229.28,35.42h22.57V153.87h-21V135.09c-6.26,12.3-20.11,21-36.2,21-23.92,0-40.45-14.08-40.45-44.47V35.42h22.57v71.74c0,20.56,10.28,29.05,25,29.05,15.19,0,27.49-12.51,27.49-31.06Z"/><path class="cls-1" d="M324.46,156.11c-16.09-.05-29.7-8.13-38.15-22.46l-.19,63.24-22.57-.07L264,35.25l21,.06L285,57c8.54-15.17,23.1-23.84,39.86-23.79,31.51.1,52.21,25.86,52.1,61.62S356.19,156.21,324.46,156.11Zm-4.38-103C301.31,53,286.52,68,286.43,94.54c-.08,26.15,14.4,41.39,33.4,41.45,19.44.06,33.57-14.65,33.65-41.24S339.53,53.14,320.08,53.08Z"/><path class="cls-1" d="M440,153.87H415.43L371,35.42h24.36l32.85,92.52,33.3-92.52h23Z"/><path class="cls-1" d="M477.19,94c0-35.08,23.91-60.78,56.54-60.78,35.31,0,58.77,28.6,54.75,67H500.2c1.79,24.14,13.86,38.22,33.75,38.22,16.76,0,28.38-9.17,32.18-24.59h22.35c-5.81,26.37-26.15,42.24-54.08,42.24C500.2,156.1,477.19,131.3,477.19,94Zm23.24-8.71h64.14c-1.12-21.9-13-35.09-31.29-35.09C515.18,50.17,502.89,63.13,500.43,85.26Z"/><path class="cls-1" d="M647.54,156.1c-31.29,0-49.84-15.42-52.07-40.9h21.67C618,130,629.88,139.12,648,139.12c15.86,0,26.37-5.59,26.37-16.76,0-9.84-6-14.08-20.79-17l-19.22-3.57c-21.9-4.25-34.19-15.42-34.19-33.3,0-20.79,18.1-35.31,45.59-35.31,28.38,0,47.6,15.19,49.61,39.55H673.69c-1.34-14.3-11.85-22.57-27.72-22.57-14.3,0-23.91,6-23.91,16.32,0,9.61,6,14.08,20.34,16.76l20.11,3.8c23.47,4.24,34.64,14.52,34.64,31.51C697.15,141.8,679.05,156.1,647.54,156.1Z"/><rect class="cls-2" x="0.06" y="94.64" width="59.22" height="59.22"/><path class="cls-2" d="M26.12,35.42A26.06,26.06,0,0,0,.06,61.48v15.4h77v77h15.4a26.05,26.05,0,0,0,26.05-26.06V35.42Z"/><path class="cls-1" d="M774.11,133.83a35.46,35.46,0,0,1-9.79,1.26c-12.07,0-19.89-5.81-19.89-22.12V54.64h35.75V35.42H744.43V.34H721.85V35.42H695.71V54.64h26.14v63.47c0,26.15,15.2,38,37.1,38a46.34,46.34,0,0,0,15.16-2.3Z"/></svg>